<?xml version="1.0" encoding="UTF-8"?>
<svg xmlns="http://www.w3.org/2000/svg" xmlns:xlink="http://www.w3.org/1999/xlink" width="375pt" height="374.999991pt" viewBox="0 0 375 374.999991" version="1.2">
<defs>
<clipPath id="clip1">
  <path d="M 84.222656 20.714844 L 127.402344 20.714844 L 127.402344 63.898438 L 84.222656 63.898438 Z M 84.222656 20.714844 "/>
</clipPath>
<clipPath id="clip2">
  <path d="M 139.515625 220.84375 L 167.582031 220.84375 L 167.582031 248.914062 L 139.515625 248.914062 Z M 139.515625 220.84375 "/>
</clipPath>
<clipPath id="clip3">
  <path d="M 18.394531 192.054688 L 61.574219 192.054688 L 61.574219 235.234375 L 18.394531 235.234375 Z M 18.394531 192.054688 "/>
</clipPath>
<clipPath id="clip4">
  <path d="M 4.714844 113.902344 L 32.785156 113.902344 L 32.785156 141.96875 L 4.714844 141.96875 Z M 4.714844 113.902344 "/>
</clipPath>
<clipPath id="clip5">
  <path d="M 187.464844 127.660156 L 215.53125 127.660156 L 215.53125 155.726562 L 187.464844 155.726562 Z M 187.464844 127.660156 "/>
</clipPath>
<clipPath id="clip6">
  <path d="M 332.234375 241.957031 L 370.46875 241.957031 L 370.46875 280.191406 L 332.234375 280.191406 Z M 332.234375 241.957031 "/>
</clipPath>
<clipPath id="clip7">
  <path d="M 168.421875 290.914062 L 193.273438 290.914062 L 193.273438 315.765625 L 168.421875 315.765625 Z M 168.421875 290.914062 "/>
</clipPath>
<clipPath id="clip8">
  <path d="M 180.53125 183.671875 L 218.765625 183.671875 L 218.765625 221.90625 L 180.53125 221.90625 Z M 180.53125 183.671875 "/>
</clipPath>
<clipPath id="clip9">
  <path d="M 263.109375 171.5625 L 287.960938 171.5625 L 287.960938 196.414062 L 263.109375 196.414062 Z M 263.109375 171.5625 "/>
</clipPath>
<clipPath id="clip10">
  <path d="M 250.929688 333.371094 L 275.78125 333.371094 L 275.78125 358.222656 L 250.929688 358.222656 Z M 250.929688 333.371094 "/>
</clipPath>
</defs>
<g id="surface1">
<path style=" stroke:none;fill-rule:nonzero;fill:rgb(18.03894%,18.03894%,25.099182%);fill-opacity:1;" d="M 189.335938 6.796875 C 186.371094 6.796875 183.410156 6.867188 180.449219 7.015625 C 177.488281 7.160156 174.53125 7.378906 171.582031 7.667969 C 168.632812 7.957031 165.691406 8.320312 162.757812 8.757812 C 159.828125 9.191406 156.90625 9.699219 154 10.277344 C 151.089844 10.855469 148.199219 11.503906 145.324219 12.222656 C 142.449219 12.945312 139.59375 13.734375 136.757812 14.59375 C 133.917969 15.457031 131.105469 16.386719 128.3125 17.382812 C 125.523438 18.382812 122.757812 19.449219 120.019531 20.582031 C 117.28125 21.71875 114.570312 22.917969 111.890625 24.1875 C 109.210938 25.453125 106.566406 26.785156 103.949219 28.183594 C 101.335938 29.582031 98.757812 31.042969 96.214844 32.566406 C 93.671875 34.089844 91.167969 35.675781 88.703125 37.324219 C 86.238281 38.96875 83.816406 40.675781 81.433594 42.441406 C 79.054688 44.207031 76.71875 46.03125 74.425781 47.910156 C 72.136719 49.792969 69.890625 51.726562 67.695312 53.71875 C 65.5 55.710938 63.351562 57.753906 61.253906 59.847656 C 59.160156 61.945312 57.117188 64.089844 55.125 66.289062 C 53.132812 68.484375 51.199219 70.726562 49.320312 73.019531 C 47.4375 75.3125 45.613281 77.648438 43.847656 80.027344 C 42.082031 82.410156 40.375 84.832031 38.730469 87.296875 C 37.082031 89.761719 35.496094 92.265625 33.972656 94.808594 C 32.449219 97.351562 30.988281 99.929688 29.589844 102.542969 C 28.195312 105.15625 26.859375 107.804688 25.59375 110.484375 C 24.328125 113.164062 23.125 115.875 21.992188 118.613281 C 20.855469 121.351562 19.789062 124.117188 18.792969 126.90625 C 17.792969 129.699219 16.863281 132.511719 16.003906 135.347656 C 15.140625 138.1875 14.351562 141.042969 13.632812 143.917969 C 12.910156 146.792969 12.261719 149.683594 11.683594 152.59375 C 11.105469 155.5 10.597656 158.417969 10.164062 161.351562 C 9.730469 164.285156 9.367188 167.226562 9.074219 170.175781 C 8.785156 173.125 8.566406 176.082031 8.421875 179.042969 C 8.277344 182.003906 8.203125 184.964844 8.203125 187.929688 C 8.203125 190.894531 8.277344 193.855469 8.421875 196.816406 C 8.566406 199.777344 8.785156 202.734375 9.074219 205.683594 C 9.367188 208.632812 9.730469 211.574219 10.164062 214.507812 C 10.597656 217.4375 11.105469 220.359375 11.683594 223.265625 C 12.261719 226.175781 12.910156 229.066406 13.632812 231.941406 C 14.351562 234.816406 15.140625 237.671875 16.003906 240.507812 C 16.863281 243.347656 17.792969 246.160156 18.792969 248.949219 C 19.789062 251.742188 20.855469 254.507812 21.992188 257.246094 C 23.125 259.984375 24.328125 262.695312 25.59375 265.375 C 26.859375 268.054688 28.195312 270.699219 29.589844 273.316406 C 30.988281 275.929688 32.449219 278.507812 33.972656 281.050781 C 35.496094 283.59375 37.082031 286.097656 38.730469 288.5625 C 40.375 291.027344 42.082031 293.449219 43.847656 295.832031 C 45.613281 298.210938 47.4375 300.546875 49.320312 302.839844 C 51.199219 305.128906 53.132812 307.375 55.125 309.570312 C 57.117188 311.765625 59.160156 313.914062 61.253906 316.007812 C 63.351562 318.105469 65.5 320.148438 67.695312 322.140625 C 69.890625 324.128906 72.136719 326.066406 74.425781 327.945312 C 76.71875 329.828125 79.054688 331.652344 81.433594 333.417969 C 83.816406 335.183594 86.238281 336.890625 88.703125 338.535156 C 91.167969 340.183594 93.671875 341.769531 96.214844 343.292969 C 98.757812 344.816406 101.335938 346.277344 103.949219 347.675781 C 106.566406 349.070312 109.210938 350.402344 111.890625 351.671875 C 114.570312 352.9375 117.28125 354.140625 120.019531 355.273438 C 122.757812 356.410156 125.523438 357.476562 128.3125 358.472656 C 131.105469 359.472656 133.917969 360.402344 136.757812 361.261719 C 139.59375 362.125 142.449219 362.914062 145.324219 363.632812 C 148.199219 364.355469 151.089844 365.003906 154 365.582031 C 156.90625 366.160156 159.828125 366.667969 162.757812 367.101562 C 165.691406 367.535156 168.632812 367.898438 171.582031 368.191406 C 174.53125 368.480469 177.488281 368.699219 180.449219 368.84375 C 183.410156 368.988281 186.371094 369.0625 189.335938 369.0625 C 192.300781 369.0625 195.261719 368.988281 198.222656 368.84375 C 201.183594 368.699219 204.140625 368.480469 207.089844 368.191406 C 210.039062 367.898438 212.980469 367.535156 215.914062 367.101562 C 218.847656 366.667969 221.765625 366.160156 224.671875 365.582031 C 227.582031 365.003906 230.472656 364.355469 233.347656 363.632812 C 236.222656 362.914062 239.078125 362.125 241.917969 361.261719 C 244.753906 360.402344 247.566406 359.472656 250.359375 358.472656 C 253.148438 357.476562 255.914062 356.410156 258.652344 355.273438 C 261.390625 354.140625 264.101562 352.9375 266.78125 351.671875 C 269.460938 350.402344 272.109375 349.070312 274.722656 347.675781 C 277.335938 346.277344 279.914062 344.816406 282.457031 343.292969 C 285 341.769531 287.503906 340.183594 289.96875 338.535156 C 292.433594 336.890625 294.855469 335.183594 297.238281 333.417969 C 299.617188 331.652344 301.953125 329.828125 304.246094 327.945312 C 306.539062 326.066406 308.78125 324.128906 310.976562 322.140625 C 313.175781 320.148438 315.320312 318.105469 317.417969 316.007812 C 319.511719 313.914062 321.554688 311.765625 323.546875 309.570312 C 325.539062 307.375 327.472656 305.128906 329.355469 302.839844 C 331.234375 300.546875 333.058594 298.210938 334.824219 295.832031 C 336.589844 293.449219 338.296875 291.027344 339.941406 288.5625 C 341.589844 286.097656 343.175781 283.59375 344.699219 281.050781 C 346.222656 278.507812 347.683594 275.929688 349.082031 273.316406 C 350.480469 270.699219 351.8125 268.054688 353.078125 265.375 C 354.347656 262.695312 355.546875 259.984375 356.679688 257.246094 C 357.816406 254.507812 358.882812 251.742188 359.882812 248.949219 C 360.878906 246.160156 361.808594 243.347656 362.671875 240.507812 C 363.53125 237.671875 364.320312 234.816406 365.042969 231.941406 C 365.761719 229.066406 366.410156 226.175781 366.988281 223.265625 C 367.566406 220.359375 368.074219 217.4375 368.507812 214.507812 C 368.945312 211.574219 369.308594 208.632812 369.597656 205.683594 C 369.886719 202.734375 370.105469 199.777344 370.25 196.816406 C 370.398438 193.855469 370.46875 190.894531 370.46875 187.929688 C 370.46875 184.964844 370.398438 182.003906 370.25 179.042969 C 370.105469 176.082031 369.886719 173.125 369.597656 170.175781 C 369.308594 167.226562 368.945312 164.285156 368.507812 161.351562 C 368.074219 158.417969 367.566406 155.5 366.988281 152.59375 C 366.410156 149.683594 365.761719 146.792969 365.042969 143.917969 C 364.320312 141.042969 363.53125 138.1875 362.671875 135.347656 C 361.808594 132.511719 360.878906 129.699219 359.882812 126.90625 C 358.882812 124.117188 357.816406 121.351562 356.679688 118.613281 C 355.546875 115.875 354.347656 113.164062 353.078125 110.484375 C 351.8125 107.804688 350.480469 105.15625 349.082031 102.542969 C 347.683594 99.929688 346.222656 97.351562 344.699219 94.808594 C 343.175781 92.265625 341.589844 89.761719 339.941406 87.296875 C 338.296875 84.832031 336.589844 82.410156 334.824219 80.027344 C 333.058594 77.648438 331.234375 75.3125 329.355469 73.019531 C 327.472656 70.726562 325.539062 68.484375 323.546875 66.289062 C 321.554688 64.089844 319.511719 61.945312 317.417969 59.847656 C 315.320312 57.753906 313.175781 55.710938 310.976562 53.71875 C 308.78125 51.726562 306.539062 49.792969 304.246094 47.910156 C 301.953125 46.03125 299.617188 44.207031 297.238281 42.441406 C 294.855469 40.675781 292.433594 38.96875 289.96875 37.324219 C 287.503906 35.675781 285 34.089844 282.457031 32.566406 C 279.914062 31.042969 277.335938 29.582031 274.722656 28.183594 C 272.109375 26.785156 269.460938 25.453125 266.78125 24.1875 C 264.101562 22.917969 261.390625 21.71875 258.652344 20.582031 C 255.914062 19.449219 253.148438 18.382812 250.359375 17.382812 C 247.566406 16.386719 244.753906 15.457031 241.917969 14.59375 C 239.078125 13.734375 236.222656 12.945312 233.347656 12.222656 C 230.472656 11.503906 227.582031 10.855469 224.671875 10.277344 C 221.765625 9.699219 218.847656 9.191406 215.914062 8.757812 C 212.980469 8.320312 210.039062 7.957031 207.089844 7.667969 C 204.140625 7.378906 201.183594 7.160156 198.222656 7.015625 C 195.261719 6.867188 192.300781 6.796875 189.335938 6.796875 Z M 189.335938 6.796875 "/>
<g clip-path="url(#clip1)" clip-rule="nonzero">
<path style=" stroke:none;fill-rule:nonzero;fill:rgb(93.728638%,82.348633%,79.60968%);fill-opacity:1;" d="M 127.402344 42.3125 C 108.339844 42.3125 106.699219 43.210938 113.441406 49.953125 C 106.699219 43.210938 105.804688 44.851562 105.804688 63.910156 C 105.804688 44.851562 104.910156 43.210938 98.167969 49.953125 C 104.910156 43.210938 103.269531 42.3125 84.203125 42.3125 C 103.269531 42.3125 104.910156 41.417969 98.167969 34.679688 C 104.910156 41.417969 105.804688 39.785156 105.804688 20.714844 C 105.804688 39.785156 106.699219 41.417969 113.441406 34.679688 C 106.699219 41.417969 108.339844 42.3125 127.402344 42.3125 Z M 127.402344 42.3125 "/>
</g>
<g clip-path="url(#clip2)" clip-rule="nonzero">
<path style=" stroke:none;fill-rule:nonzero;fill:rgb(93.728638%,82.348633%,79.60968%);fill-opacity:1;" d="M 153.546875 248.914062 C 152.78125 236.265625 152.160156 235.648438 139.515625 234.878906 C 152.160156 234.113281 152.78125 233.492188 153.546875 220.84375 C 154.316406 233.492188 154.9375 234.113281 167.582031 234.878906 C 154.9375 235.648438 154.316406 236.265625 153.546875 248.914062 Z M 153.546875 248.914062 "/>
</g>
<g clip-path="url(#clip3)" clip-rule="nonzero">
<path style=" stroke:none;fill-rule:nonzero;fill:rgb(93.728638%,82.348633%,79.60968%);fill-opacity:1;" d="M 61.574219 213.652344 C 42.511719 213.652344 40.871094 214.550781 47.613281 221.289062 C 40.871094 214.550781 39.976562 216.1875 39.976562 235.25 C 39.976562 216.1875 39.082031 214.550781 32.339844 221.289062 C 39.082031 214.550781 37.441406 213.652344 18.375 213.652344 C 37.441406 213.652344 39.082031 212.757812 32.339844 206.015625 C 39.082031 212.757812 39.976562 211.121094 39.976562 192.054688 C 39.976562 211.121094 40.871094 212.757812 47.613281 206.015625 C 40.871094 212.757812 42.511719 213.652344 61.574219 213.652344 Z M 61.574219 213.652344 "/>
</g>
<g clip-path="url(#clip4)" clip-rule="nonzero">
<path style=" stroke:none;fill-rule:nonzero;fill:rgb(93.728638%,82.348633%,79.60968%);fill-opacity:1;" d="M 18.75 141.972656 C 17.984375 129.324219 17.363281 128.703125 4.714844 127.9375 C 17.363281 127.171875 17.984375 126.550781 18.75 113.902344 C 19.515625 126.550781 20.136719 127.171875 32.785156 127.9375 C 20.136719 128.703125 19.515625 129.324219 18.75 141.972656 Z M 18.75 141.972656 "/>
</g>
<g clip-path="url(#clip5)" clip-rule="nonzero">
<path style=" stroke:none;fill-rule:nonzero;fill:rgb(93.728638%,82.348633%,79.60968%);fill-opacity:1;" d="M 201.5 155.726562 C 200.730469 143.082031 200.109375 142.460938 187.464844 141.691406 C 200.109375 140.925781 200.730469 140.304688 201.5 127.660156 C 202.265625 140.304688 202.886719 140.925781 215.53125 141.691406 C 202.886719 142.460938 202.265625 143.082031 201.5 155.726562 Z M 201.5 155.726562 "/>
</g>
<g clip-path="url(#clip6)" clip-rule="nonzero">
<path style=" stroke:none;fill-rule:nonzero;fill:rgb(93.728638%,82.348633%,79.60968%);fill-opacity:1;" d="M 351.34375 280.191406 C 351.34375 263.3125 350.550781 261.859375 344.582031 267.828125 C 350.550781 261.859375 349.097656 261.066406 332.222656 261.066406 C 349.097656 261.066406 350.550781 260.277344 344.582031 254.304688 C 350.550781 260.277344 351.34375 258.824219 351.34375 241.941406 C 351.34375 258.824219 352.136719 260.277344 358.105469 254.304688 C 352.136719 260.277344 353.585938 261.066406 370.46875 261.066406 C 353.585938 261.066406 352.136719 261.859375 358.105469 267.828125 C 352.136719 261.859375 351.34375 263.3125 351.34375 280.191406 Z M 351.34375 280.191406 "/>
</g>
<g clip-path="url(#clip7)" clip-rule="nonzero">
<path style=" stroke:none;fill-rule:nonzero;fill:rgb(93.728638%,82.348633%,79.60968%);fill-opacity:1;" d="M 168.421875 303.339844 C 179.617188 302.660156 180.167969 302.113281 180.847656 290.914062 C 181.523438 302.113281 182.074219 302.660156 193.273438 303.339844 C 182.074219 304.019531 181.523438 304.570312 180.847656 315.765625 C 180.167969 304.570312 179.617188 304.019531 168.421875 303.339844 Z M 168.421875 303.339844 "/>
</g>
<g clip-path="url(#clip8)" clip-rule="nonzero">
<path style=" stroke:none;fill-rule:nonzero;fill:rgb(93.728638%,82.348633%,79.60968%);fill-opacity:1;" d="M 199.640625 221.90625 C 199.640625 205.027344 198.847656 203.574219 192.878906 209.542969 C 198.847656 203.574219 197.394531 202.78125 180.519531 202.78125 C 197.394531 202.78125 198.847656 201.992188 192.878906 196.019531 C 198.847656 201.992188 199.640625 200.539062 199.640625 183.65625 C 199.640625 200.539062 200.433594 201.992188 206.402344 196.019531 C 200.433594 201.992188 201.882812 202.78125 218.765625 202.78125 C 201.882812 202.78125 200.433594 203.574219 206.402344 209.542969 C 200.433594 203.574219 199.640625 205.027344 199.640625 221.90625 Z M 199.640625 221.90625 "/>
</g>
<g clip-path="url(#clip9)" clip-rule="nonzero">
<path style=" stroke:none;fill-rule:nonzero;fill:rgb(93.728638%,82.348633%,79.60968%);fill-opacity:1;" d="M 263.105469 183.988281 C 274.304688 183.308594 274.855469 182.761719 275.535156 171.5625 C 276.210938 182.761719 276.761719 183.308594 287.960938 183.988281 C 276.761719 184.667969 276.210938 185.21875 275.535156 196.414062 C 274.855469 185.21875 274.304688 184.667969 263.105469 183.988281 Z M 263.105469 183.988281 "/>
</g>
<g clip-path="url(#clip10)" clip-rule="nonzero">
<path style=" stroke:none;fill-rule:nonzero;fill:rgb(93.728638%,82.348633%,79.60968%);fill-opacity:1;" d="M 250.929688 345.796875 C 262.125 345.117188 262.675781 344.566406 263.355469 333.371094 C 264.03125 344.566406 264.582031 345.117188 275.78125 345.796875 C 264.582031 346.472656 264.03125 347.023438 263.355469 358.222656 C 262.675781 347.023438 262.125 346.472656 250.929688 345.796875 Z M 250.929688 345.796875 "/>
</g>
</g>
</svg>
